<svg width="42" height="47" viewBox="0 0 42 47" fill="none" xmlns="http://www.w3.org/2000/svg">
<path d="M39.4062 17H38.2656V11.5C38.2656 11.4688 38.2656 11.4375 38.25 11.3906C38.25 11.1719 38.1719 10.9531 38.0312 10.7812L28.875 0.3125C28.8281 0.25 28.75 0.203125 28.6875 0.15625C28.6719 0.140625 28.6406 0.124999 28.625 0.124999C28.5625 0.0937493 28.5 0.0624993 28.4375 0.0468743C28.4219 0.0468743 28.4063 0.0312495 28.3906 0.0312495C28.3281 0.0156245 28.25 0 28.1719 0H5.65625C4.625 0 3.79687 0.84375 3.79687 1.85938V16.9844H2.65625C1.1875 16.9844 0 18.1719 0 19.6406V33.4844C0 34.9531 1.1875 36.1406 2.65625 36.1406H3.79687V45.625C3.79687 46.6562 4.625 47.4844 5.65625 47.4844H36.3906C37.4219 47.4844 38.25 46.6406 38.25 45.625V36.1406H39.3906C40.8594 36.1406 42.0469 34.9531 42.0469 33.4844V19.6406C42.0625 18.2031 40.875 17 39.4062 17ZM6.21875 2.42188H27.25V11.4062C27.25 11.9219 27.6719 12.3437 28.1875 12.3437H35.8594V17.0156H6.21875V2.42188ZM28.0156 25.8281C28.0156 30.0625 25.4531 32.625 21.6719 32.625C17.8438 32.625 15.5937 29.7344 15.5937 26.0469C15.5937 22.1719 18.0625 19.2812 21.875 19.2812C25.8438 19.2969 28.0156 22.2656 28.0156 25.8281ZM2.85937 32.375V19.6875C3.9375 19.5156 5.32812 19.4219 6.8125 19.4219C9.26562 19.4219 10.8594 19.8594 12.0938 20.7969C13.4375 21.7969 14.2812 23.3906 14.2812 25.6563C14.2812 28.125 13.375 29.8281 12.1406 30.8906C10.7813 32.0156 8.70312 32.5625 6.1875 32.5625C4.65625 32.5625 3.57812 32.4688 2.85937 32.375ZM35.8438 45.1562H6.21875V36.1875H35.8594V45.1562H35.8438ZM36.5469 30.2031C37.4219 30.2031 38.4062 30.0156 38.9844 29.7813L39.4219 32.0625C38.8906 32.3281 37.6719 32.625 36.1094 32.625C31.6406 32.625 29.3438 29.8438 29.3438 26.1719C29.3438 21.7656 32.4844 19.3125 36.3906 19.3125C37.9062 19.3125 39.0625 19.625 39.5781 19.8906L38.9844 22.2031C38.3906 21.9531 37.5625 21.7188 36.5313 21.7188C34.2188 21.7188 32.4062 23.125 32.4062 25.9844C32.4062 28.5781 33.9375 30.2031 36.5469 30.2031Z" transform="scale(0.989799)" fill="#0E1A36"/>
<path d="M5.39062 4.09375C5.40625 1.40625 3.84375 0 1.32812 0C0.671875 0 0.25 0.0624995 0 0.109375V8.5625C0.25 8.625 0.65625 8.625 1.01562 8.625C3.65625 8.64063 5.39062 7.1875 5.39062 4.09375Z" transform="translate(5.72228 21.4353) scale(0.989799)" fill="#0E1A36"/>
<path d="M0 4.39062C0 6.92187 1.1875 8.70312 3.14063 8.70312C5.10938 8.70312 6.25 6.82812 6.25 4.3125C6.25 2 5.14062 0 3.125 0C1.14062 0.015625 0 1.89062 0 4.39062Z" transform="translate(18.4969 21.3889) scale(0.989799)" fill="#0E1A36"/>
</svg>
