<svg width="46" height="41" viewBox="0 0 46 41" fill="none" xmlns="http://www.w3.org/2000/svg">
<path d="M12.125 4.54763C12.125 2.06326 10.125 0.0476306 7.65625 0.000755553C5.10938 -0.0461195 3.03125 2.09451 3.03125 4.64138V7.57888H1.09375C0.484375 7.57888 0 8.06326 0 8.67263V18.6101C0 19.2195 0.484375 19.7039 1.09375 19.7039H14.0469C14.6562 19.7039 15.1406 19.2195 15.1406 18.6101V8.67263C15.1406 8.06326 14.6562 7.57888 14.0469 7.57888H12.1094V4.54763H12.125ZM4.54688 4.54763C4.54688 2.84451 5.96875 1.45388 7.6875 1.51638C9.32813 1.57888 10.6094 2.96951 10.6094 4.61013V7.57888H4.54688V4.54763ZM13.6406 9.09451V18.1883H1.53125V9.09451H13.6406Z" transform="translate(15.5289 15.4973) scale(0.987919)" fill="#0E1A36"/>
<path d="M2.26562 5.95313V6.8125C2.26562 7.23438 2.60937 7.57812 3.03125 7.57812C3.45312 7.57812 3.79687 7.23438 3.79687 6.8125V5.95313C5.09375 5.60938 6.0625 4.4375 6.0625 3.03125C6.0625 1.35937 4.70312 0 3.03125 0C1.35937 0 0 1.35937 0 3.03125C0 4.4375 0.96875 5.625 2.26562 5.95313ZM3.03125 1.53125C3.85937 1.53125 4.54688 2.21875 4.54688 3.04688C4.54688 3.875 3.85937 4.5625 3.03125 4.5625C2.20312 4.5625 1.51562 3.875 1.51562 3.04688C1.51562 2.20312 2.20312 1.53125 3.03125 1.53125Z" transform="translate(20.0208 25.2228) scale(0.987919)" fill="#0E1A36"/>
<path d="M20.8594 5.15625L17.7812 0.874999C17.3906 0.328124 16.75 0 16.0625 0H2.10938C0.9375 0 0 0.9375 0 2.10938V39.1562C0 40.3281 0.9375 41.2656 2.10938 41.2656H44.4531C45.625 41.2656 46.5625 40.3281 46.5625 39.1562V7.39062C46.5625 6.21875 45.625 5.28125 44.4531 5.28125H21.1094C21.0156 5.28125 20.9219 5.23438 20.8594 5.15625ZM43.9219 13.5469V38.2969C43.9219 38.4688 43.7812 38.6094 43.6094 38.6094H2.96875C2.79688 38.6094 2.65625 38.4688 2.65625 38.2969V2.9375C2.65625 2.76562 2.79688 2.625 2.96875 2.625H15.6406C15.7344 2.625 15.8281 2.67187 15.8906 2.75L19.4219 7.6875L19.6094 7.92187L23 12.6562C23.1406 12.8438 23.3125 12.9844 23.5156 13.0781V13.2344H43.6562C43.7969 13.2344 43.9219 13.375 43.9219 13.5469ZM23.4531 7.9375H43.625C43.7969 7.9375 43.9375 8.07812 43.9375 8.25V10.2969C43.9375 10.4687 43.7969 10.6094 43.625 10.6094H24.9062C24.8125 10.6094 24.7188 10.5625 24.6563 10.4844L23.2031 8.4375C23.0625 8.21875 23.2031 7.9375 23.4531 7.9375Z" transform="scale(0.987919)" fill="#0E1A36"/>
</svg>
