<svg width="56" height="56" viewBox="0 0 56 56" fill="none" xmlns="http://www.w3.org/2000/svg">
<path d="M9.78125 4.89063C9.78125 7.59375 7.59375 9.78125 4.89063 9.78125C2.1875 9.78125 0 7.59375 0 4.89063C0 2.1875 2.1875 0 4.89063 0C7.59375 0 9.78125 2.1875 9.78125 4.89063Z" transform="translate(23.1226) scale(0.997139)" fill="#0E1A36"/>
<path d="M10.3921 0C10.3765 0 10.3453 0 10.3296 0H6.65775C2.90775 0.078125 -0.0766255 3.17188 0.00149954 6.92188C0.00149954 6.9375 0.00149954 6.96875 0.00149954 6.98437V8.03125C0.00149954 8.54688 0.204625 9.14062 0.78275 9.14062H16.189C16.7828 9.14062 16.9703 8.54688 16.9703 8.03125V6.98437C17.0953 3.23437 14.1421 0.109375 10.3921 0Z" transform="translate(19.5221 10.9374) scale(0.997139)" fill="#0E1A36"/>
<path d="M0.984376 18.5044C1.53125 18.5044 1.96875 18.0669 1.96875 17.52C1.95312 11.3794 4.75 5.55125 9.54688 1.72313C9.95312 1.42625 10.0469 0.863754 9.75 0.441879C9.71875 0.410629 9.70313 0.379378 9.67188 0.348128C9.32813 -0.0581217 8.71875 -0.12062 8.29688 0.22313C3.04688 4.44188 0 10.8013 0 17.5356C0 18.0669 0.437501 18.5044 0.984376 18.5044Z" transform="translate(5.8441 13.9711) scale(0.997139)" fill="#0E1A36"/>
<path d="M14.1287 0.0505007C9.95682 1.4255 5.44119 1.4255 1.26932 0.0505007C0.753694 -0.121374 0.206817 0.159876 0.0349423 0.675501C0.0349423 0.691126 0.0349423 0.691122 0.0349423 0.691122C-0.105683 1.20675 0.191194 1.75363 0.691194 1.9255C2.94119 2.65988 5.30057 3.03487 7.67557 3.03487C10.0974 3.03487 12.5037 2.64425 14.8006 1.863C15.2849 1.613 15.4724 1.01925 15.2224 0.550498C15.0037 0.175498 14.5662 -0.0432493 14.1287 0.0505007Z" transform="translate(20.3457 50.5388) scale(0.997139)" fill="#0E1A36"/>
<path d="M10.2031 0.453126C9.95312 0.156251 9.59375 0 9.21875 0C8.92188 0 8.625 0.109376 8.40625 0.296876C3.0625 4.59375 0 10.9844 0 17.8438C0 18.5625 0.578125 19.1406 1.29688 19.1406C2.01563 19.1406 2.59375 18.5625 2.59375 17.8438C2.57813 11.7656 5.29688 6.09375 10.0469 2.29687C10.5938 1.90625 10.7188 1.14063 10.3281 0.59375C10.2656 0.53125 10.2344 0.484376 10.2031 0.453126Z" transform="translate(5.54807 13.6639) scale(0.997139)" fill="#0E1A36"/>
<path d="M14.6521 0.0312519C14.5583 0.0312519 14.4646 0.046874 14.3864 0.062499H14.3708H14.3552C12.3083 0.734374 10.1677 1.07812 8.02706 1.07812C5.87081 1.07812 3.74581 0.734374 1.68331 0.062499C1.55831 0.015624 1.41768 0 1.29268 0C0.730181 0 0.230182 0.359378 0.0583065 0.906253L0.0426805 0.9375C-0.129194 1.60938 0.230181 2.3125 0.902056 2.54688C3.19893 3.29688 5.57393 3.67188 7.98018 3.67188H7.99581C10.4489 3.67188 12.8708 3.26562 15.1989 2.48437H15.2146L15.2302 2.46875C15.8708 2.14063 16.1052 1.35938 15.7927 0.734377C15.5739 0.296877 15.1364 0.0312519 14.6521 0.0312519Z" transform="translate(20.0263 50.2309) scale(0.997139)" fill="#0E1A36"/>
<path d="M2.03882 0.218749L2.0232 0.203123C1.80445 0.0781231 1.57008 0 1.32008 0C0.898201 0 0.491951 0.203125 0.226326 0.546875C0.0232014 0.828125 -0.0393015 1.17187 0.0231985 1.51562C0.0856985 1.85937 0.273198 2.15625 0.554448 2.34375H0.570073C5.8357 6.07812 8.97632 12.1563 8.99195 18.6094C8.99195 19.3281 9.57008 19.9062 10.2888 19.9062C11.0076 19.9062 11.5857 19.3281 11.5857 18.6094C11.5544 11.3281 7.99195 4.45312 2.03882 0.218749Z" transform="translate(38.8979 12.8693) scale(0.997139)" fill="#0E1A36"/>
<path d="M0.4278 1.77592C0.4278 1.79154 0.4278 1.79154 0.4278 1.77592C5.8028 5.58842 8.9903 11.7447 8.9903 18.3072C8.9903 18.854 9.4278 19.2915 9.97468 19.2915C10.5216 19.2915 10.959 18.854 10.959 18.3072C10.9434 11.0884 7.44343 4.3228 1.5528 0.150921C1.09968 -0.130329 0.505924 -0.00532985 0.177799 0.416545C-0.134701 0.86967 -0.0253247 1.47904 0.4278 1.77592Z" transform="translate(39.2112 13.1863) scale(0.997139)" fill="#0E1A36"/>
<path d="M9.79688 4.89063C9.79688 7.59375 7.60937 9.78125 4.90625 9.78125C2.1875 9.78125 0 7.59375 0 4.89063C0 2.1875 2.1875 0 4.89063 0C7.60938 0 9.79688 2.1875 9.79688 4.89063Z" transform="translate(3.56938 35.8191) scale(0.997139)" fill="#0E1A36"/>
<path d="M10.3765 0C10.3609 0 10.3296 0 10.314 0H6.65775C2.90775 0.0625 -0.0766255 3.17187 0.00149954 6.92187C0.00149954 6.9375 0.00149954 6.96875 0.00149954 6.98437V8.03125C0.00149954 8.54687 0.204625 9.14062 0.78275 9.14062H16.189C16.7827 9.14062 16.9702 8.54687 16.9702 8.03125V6.98437C17.0796 3.23437 14.1265 0.109375 10.3765 0Z" transform="translate(0 46.7565) scale(0.997139)" fill="#0E1A36"/>
<path d="M9.78125 4.89063C9.78125 7.59375 7.59375 9.78125 4.89063 9.78125C2.1875 9.78125 0 7.59375 0 4.89063C0 2.1875 2.1875 0 4.89063 0C7.57813 0 9.78125 2.1875 9.78125 4.89063Z" transform="translate(42.6603 35.8191) scale(0.997139)" fill="#0E1A36"/>
<path d="M10.3765 0C10.3609 0 10.3296 0 10.314 0H6.65775C2.90775 0.0625 -0.0766255 3.17187 0.00149954 6.92187C0.00149954 6.9375 0.00149954 6.96875 0.00149954 6.98437V8.03125C0.00149954 8.54687 0.204624 9.14062 0.782749 9.14062H16.189C16.7827 9.14062 16.9703 8.54687 16.9703 8.03125V6.98437C17.0796 3.23437 14.1265 0.109375 10.3765 0Z" transform="translate(39.0754 46.7565) scale(0.997139)" fill="#0E1A36"/>
</svg>
