<svg width="52" height="35" viewBox="0 0 52 35" fill="none" xmlns="http://www.w3.org/2000/svg">
<path d="M17.9688 35.9375C8.0625 35.9375 0 27.875 0 17.9688C0 8.0625 8.0625 0 17.9688 0C27.875 0 35.9375 8.0625 35.9375 17.9688C35.9375 27.875 27.875 35.9375 17.9688 35.9375ZM17.9688 2.84375C9.64063 2.84375 2.84375 9.625 2.84375 17.9688C2.84375 26.3125 9.625 33.0938 17.9688 33.0938C26.2969 33.0938 33.0938 26.3125 33.0938 17.9688C33.0938 9.625 26.2969 2.84375 17.9688 2.84375Z" transform="scale(0.973913)" fill="#0E1A36"/>
<path d="M17.9688 35.9375C8.0625 35.9375 0 27.875 0 17.9688C0 8.0625 8.0625 0 17.9688 0C27.875 0 35.9375 8.0625 35.9375 17.9688C35.9375 27.875 27.875 35.9375 17.9688 35.9375ZM17.9688 2.84375C9.64062 2.84375 2.84375 9.625 2.84375 17.9688C2.84375 26.3125 9.625 33.0938 17.9688 33.0938C26.3125 33.0938 33.0938 26.3125 33.0938 17.9688C33.0938 9.625 26.3125 2.84375 17.9688 2.84375Z" transform="translate(16.1) scale(0.973913)" fill="#0E1A36"/>
<path d="M4.32812 1.4375H0.718751C0.328126 1.4375 0 1.10937 0 0.718749C0 0.328124 0.328126 0 0.718751 0H4.32812C4.71875 0 5.04688 0.328124 5.04688 0.718749C5.04688 1.10937 4.73437 1.4375 4.32812 1.4375Z" transform="translate(22.9935 8.8413) scale(0.973913)" fill="#0E1A36"/>
<path d="M4.32812 1.4375H0.718751C0.328126 1.4375 0 1.10938 0 0.718751C0 0.328126 0.328126 0 0.718751 0H4.32812C4.71875 0 5.04688 0.328126 5.04688 0.718751C5.04688 1.10938 4.73437 1.4375 4.32812 1.4375Z" transform="translate(22.9935 24.9413) scale(0.973913)" fill="#0E1A36"/>
<path d="M6.89063 1.4375H0.718749C0.328124 1.4375 0 1.10937 0 0.718749C0 0.328124 0.328124 0 0.718749 0H6.89063C7.28125 0 7.60937 0.328124 7.60937 0.718749C7.59375 1.10937 7.28125 1.4375 6.89063 1.4375Z" transform="translate(21.7609 11.6109) scale(0.973913)" fill="#0E1A36"/>
<path d="M6.89063 1.4375H0.718749C0.328124 1.4375 0 1.10938 0 0.718751C0 0.328126 0.328124 0 0.718749 0H6.89063C7.28125 0 7.60937 0.328126 7.60937 0.718751C7.59375 1.125 7.28125 1.4375 6.89063 1.4375Z" transform="translate(21.7609 22.1565) scale(0.973913)" fill="#0E1A36"/>
<path d="M8.8125 1.4375H0.718751C0.328126 1.4375 0 1.10938 0 0.718751C0 0.328126 0.328126 0 0.718751 0H8.8125C9.20312 0 9.53125 0.328126 9.53125 0.718751C9.53125 1.125 9.20312 1.4375 8.8125 1.4375Z" transform="translate(20.8174 14.3804) scale(0.973913)" fill="#0E1A36"/>
<path d="M9.28125 1.4375H0.718751C0.328126 1.4375 0 1.10938 0 0.718751C0 0.328126 0.328126 0 0.718751 0H9.26563C9.65625 0 9.98437 0.328126 9.98437 0.718751C9.98437 1.10938 9.67187 1.4375 9.28125 1.4375Z" transform="translate(20.5891 19.387) scale(0.973913)" fill="#0E1A36"/>
<path d="M11.3594 1.4375H0.718749C0.328124 1.4375 0 1.10938 0 0.718751C0 0.328126 0.328124 0 0.718749 0H11.3594C11.75 0 12.0781 0.328126 12.0781 0.718751C12.0625 1.10938 11.75 1.4375 11.3594 1.4375Z" transform="translate(19.5848 16.8913) scale(0.973913)" fill="#0E1A36"/>
</svg>
