<svg width="41" height="41" viewBox="0 0 41 41" fill="none" xmlns="http://www.w3.org/2000/svg">
<path d="M40.7969 38.3594L30.875 28.4375C33.3438 25.4375 34.8125 21.5937 34.8125 17.4062C34.8125 7.79687 27.0156 0 17.4062 0C7.79687 0 0 7.79687 0 17.4062C0 27.0156 7.78125 34.8125 17.4062 34.8125C21.5937 34.8125 25.4375 33.3438 28.4375 30.875L38.3594 40.7969C39.0312 41.4688 40.125 41.4688 40.7969 40.7969C41.4688 40.125 41.4688 39.0312 40.7969 38.3594ZM17.4062 31.3438C9.70312 31.3438 3.45313 25.0937 3.45313 17.4062C3.45313 9.71875 9.70312 3.45313 17.4062 3.45313C25.0937 3.45313 31.3594 9.71875 31.3594 17.4062C31.3594 25.0937 25.0937 31.3438 17.4062 31.3438Z" transform="scale(0.992717)" fill="#0E1A36"/>
</svg>
